<?xml version="1.0" encoding="UTF-8" standalone="no"?>
<svg
   xmlns:dc="http://purl.org/dc/elements/1.1/"
   xmlns:cc="http://creativecommons.org/ns#"
   xmlns:rdf="http://www.w3.org/1999/02/22-rdf-syntax-ns#"
   xmlns:svg="http://www.w3.org/2000/svg"
   xmlns="http://www.w3.org/2000/svg"
   version="1.1"
   id="svg2"
   viewBox="0 0 440 100"
   height="100"
   width="440">
  <defs
     id="defs4" />
  <metadata
     id="metadata7">
    <rdf:RDF>
      <cc:Work
         rdf:about="">
        <dc:format>image/svg+xml</dc:format>
        <dc:type
           rdf:resource="http://purl.org/dc/dcmitype/StillImage" />
        <dc:title></dc:title>
      </cc:Work>
    </rdf:RDF>
  </metadata>
  <g
     transform="translate(0,-952.36216)"
     id="layer1">
    <path
       transform="translate(0,952.36216)"
       id="path4269"
       d="m 45.982053,99.52374 c 0,0 -6.243889,-0.512243 -11.052554,-2.297326 L 33.905184,96.788232 C 32.493582,96.184376 23.93237,92.330592 20.150546,89.521454 13.92946,84.900439 9.0070041,78.986636 5.6479332,72.098124 4.805145,70.369804 3.9072743,68.570799 3.6526645,68.100336 L 2.580146,65.334155 c 0,0 -0.4072762,-1.389829 -0.579,-2.408351 -1.2465237,-7.39333 -1.453264,-9.163458 -1.453264,-12.442991 0,-3.27953 0.2067403,-5.049661 1.453264,-12.442989 0.1717238,-1.018521 0.4522715,-2.259403 0.6932723,-2.408349 L 3.6395376,32.865292 C 3.8869275,32.39483 4.6715563,30.790695 5.3831568,29.300547 10.682455,18.203399 20.18376,9.3770795 31.761166,4.7964682 32.438506,4.5284781 33.54688,4.0745769 34.22422,3.7877991 38.681422,1.9006711 51.14691,0.88142011 57.37693,1.8946986 c 10.099315,1.642598 19.432029,6.4596799 26.810684,13.8383374 1.987986,1.987986 4.346587,4.690149 5.241331,6.004809 0.894743,1.314659 1.757635,2.501126 1.917541,2.636594 0.623626,0.528317 4.46201,8.667742 4.458163,9.453686 -0.0025,0.458149 0.192044,0.954204 0.431739,1.102345 0.239699,0.148142 0.579453,0.992505 0.755005,1.876363 0.175556,0.883858 0.576586,2.826227 0.891182,4.316375 1.041571,4.93363 -0.667828,21.467916 -0.667828,21.467916 l -0.42895,1.684793 -0.492611,1.724138 -0.492611,1.506906 -0.492611,1.202453 -0.33016,0.735306 c 0,0 -2.612756,5.474675 -4.981534,8.941763 -2.04305,2.99034 -8.919823,9.923641 -11.927715,12.025764 -3.388665,2.368232 -11.258645,6.375985 -12.520458,6.375985 -0.398123,0 -0.845724,0.197182 -0.99467,0.438182 -0.265192,0.429084 -0.924625,0.576818 -6.930192,1.552562 -4.136468,0.672064 -11.268246,1.12833 -11.641182,0.744764 z M 54.67755,90.396799 C 70.589856,88.32769 83.998693,76.671557 88.523403,60.97502 89.973703,55.943843 90.095629,45.568766 88.762491,40.630597 84.937004,26.460356 73.652319,15.194475 59.347373,11.2645 54.888299,10.039466 44.640145,10.040637 39.889245,11.2667 c -3.709489,0.957324 -9.802414,3.804423 -13.318081,6.223265 -3.088241,2.124766 -8.107377,7.267161 -10.263609,10.515663 -4.703576,7.086237 -6.7905888,14.0038 -6.781309,22.477162 0.00759,6.926592 1.130378,11.765651 4.105253,17.693 4.005294,7.980429 9.93563,13.984326 17.883362,18.105183 7.431392,3.853143 14.932399,5.186005 23.162689,4.115803 z"
       style="opacity:1;fill:#ffcd34;fill-opacity:1;stroke:#e1e2e6;stroke-width:0.49261084;stroke-opacity:0.89411765" />
    <path
       transform="translate(0,952.36216)"
       id="path4293"
       d="M 33.709317,73.266065 C 28.966347,68.456951 22.910836,62.441684 20.252625,59.898804 l -4.83311,-4.62342 3.107334,-3.135201 c 1.709033,-1.724361 3.294784,-3.135202 3.523891,-3.135202 0.229106,0 1.143133,0.554187 2.031172,1.231527 2.345361,1.788894 2.906378,1.625927 2.508566,-0.728702 -0.787014,-4.658294 3.011584,-10.970533 8.018072,-13.32386 2.142873,-1.007269 3.391852,-1.076988 7.251138,-0.404762 0.901155,0.156966 1.006542,-0.164659 1.235079,-3.769277 0.286852,-4.524384 1.180418,-6.676361 3.942054,-9.493648 2.651992,-2.705436 5.06599,-3.766151 8.615971,-3.785875 5.218566,-0.029 7.485893,1.481286 18.349754,12.222893 5.215517,5.156825 9.482758,9.615636 9.482758,9.90847 0,0.292833 -1.670537,2.189437 -3.712305,4.214676 l -3.712311,3.682253 -8.233502,-8.402539 C 56.612587,28.911306 54.033877,27.726504 50.098188,32.210457 c -1.427287,1.626118 -1.78355,3.030209 -1.356083,5.34456 0.286763,1.552568 1.73585,3.241279 9.167516,10.683475 4.854803,4.861683 8.826915,9.139625 8.826915,9.506539 0,1.048267 -6.874011,7.587505 -7.545261,7.177797 -0.32055,-0.195653 -4.311614,-4.023465 -8.86903,-8.506248 -10.151732,-9.985485 -11.672052,-10.915018 -15.020359,-9.183542 -1.313828,0.679408 -3.54072,4.150164 -3.54072,5.518445 0,2.320589 2.556536,5.600461 10.412583,13.358679 l 8.32634,8.222651 -3.816033,3.838547 c -2.098818,2.111202 -3.936436,3.838547 -4.083595,3.838547 -0.147159,0 -4.148174,-3.934729 -8.891144,-8.743842 z"
       style="opacity:1;fill:#ffffff;fill-opacity:1;stroke:#e1e2e6;stroke-width:0.49261084;stroke-opacity:0.89411765" />
    <path
       transform="translate(0,952.36216)"
       id="path4299"
       d="M 45.746007,90.484621 C 41.041871,89.974706 36.504492,88.563591 31.697668,86.115612 20.573861,80.450576 12.878244,70.344449 10.208255,57.895044 9.6041104,55.078086 9.6876279,45.82037 10.346857,42.531331 c 1.113916,-5.557565 3.681418,-11.25363 7.139132,-15.83833 2.336013,-3.097399 7.282824,-7.858052 9.974969,-9.599592 4.505584,-2.914647 11.017671,-5.591459 15.005142,-6.167905 3.014393,-0.435775 12.233321,-0.364213 14.911327,0.115749 11.410365,2.045004 22.751658,10.90576 28.37658,22.170135 1.549864,3.103729 2.902613,7.093448 3.349912,9.880031 0.498976,3.108507 0.420046,11.869398 -0.135063,14.991293 -2.038188,11.462661 -10.354472,22.434912 -21.206154,27.978752 -3.782737,1.932501 -6.584487,2.932139 -10.39387,3.708444 -2.936281,0.598375 -9.163466,0.981299 -11.622825,0.714713 z m 1.185695,-12.205556 3.950256,-3.93622 -5.756293,-5.655925 C 36.848213,60.553799 33.956157,57.354712 32.850263,55.108322 c -0.885865,-1.799447 -0.91892,-1.986849 -0.561107,-3.181121 0.209116,-0.69797 0.786956,-1.860217 1.284087,-2.582773 2.219032,-3.225251 4.989477,-3.290079 8.719438,-0.204028 0.736187,0.6091 4.721483,4.391517 8.856211,8.405369 4.134731,4.013855 7.704218,7.407057 7.932196,7.540456 0.505641,0.295864 0.963904,-0.01341 3.492901,-2.357344 2.452613,-2.273136 4.471111,-4.591674 4.471111,-5.135725 0,-0.228907 -3.631175,-4.107176 -8.069281,-8.618372 -4.438102,-4.511193 -8.472885,-8.750989 -8.966178,-9.421764 -0.925764,-1.258847 -1.373229,-3.605849 -0.983507,-5.158624 0.279235,-1.112563 2.425888,-3.363335 3.797755,-3.981962 2.787193,-1.256849 5.225767,0.441253 15.35632,10.693386 l 7.932689,8.027895 3.713885,-3.77887 c 2.042638,-2.078378 3.797852,-3.997674 3.900475,-4.265103 0.135489,-0.353085 -2.350544,-2.999761 -9.078602,-9.665239 -5.095855,-5.048453 -9.586812,-9.382933 -9.979909,-9.632178 -0.3931,-0.249245 -1.004882,-0.671865 -1.359517,-0.939156 -2.875317,-2.167138 -7.496812,-2.963403 -11.059269,-1.905467 -1.913051,0.568116 -3.342489,1.433034 -5.008773,3.030692 -3.004952,2.88119 -3.989284,5.118633 -4.330758,9.844064 -0.130544,1.806467 -0.36165,3.408775 -0.513574,3.560686 -0.166873,0.166858 -0.814432,0.15187 -1.635743,-0.03786 -3.599259,-0.831459 -6.919588,0.319524 -10.136449,3.513775 -3.0893,3.067586 -4.635595,6.848236 -4.262177,10.420909 0.235062,2.248952 -0.05969,2.325877 -2.333633,0.609034 -0.880326,-0.664653 -1.742389,-1.20846 -1.915696,-1.20846 -0.173308,0 -1.85309,1.470469 -3.732849,3.267707 l -3.417745,3.26771 2.400785,2.239632 c 1.320432,1.231797 7.49605,7.306646 13.723597,13.499661 6.227547,6.193019 11.451441,11.260034 11.608656,11.260034 0.157211,0 2.063456,-1.771299 4.2361,-3.936221 z"
       style="opacity:1;fill:#343433;fill-opacity:1;stroke:#e1e2e6;stroke-width:0.30211481;stroke-opacity:0.89411765" />
    <path
       transform="translate(0,952.36216)"
       id="path4309"
       d="m 117.64596,68.544591 c -0.0745,-0.207704 -0.1722,-8.024978 -0.21711,-17.37172 l -0.0816,-16.994077 4.2873,1.19e-4 c 2.60383,7.2e-5 4.36251,0.121799 4.47882,0.310001 0.10534,0.170435 0.26756,1.046575 0.36049,1.946978 0.10319,0.999814 0.33411,1.70047 0.5932,1.799894 0.25072,0.09621 1.06824,-0.483893 1.99874,-1.418278 1.49343,-1.499673 2.15537,-1.91857 4.83248,-3.058183 1.74282,-0.741894 5.88535,-0.655203 8.15007,0.170557 1.83494,0.66905 4.75509,3.092056 4.75509,3.945547 0,1.173347 1.59789,1.515126 2.13976,0.457681 0.50518,-0.985845 2.48736,-2.703865 3.97499,-3.445261 2.9675,-1.478916 3.52285,-1.615162 6.58351,-1.615162 2.72302,0 3.19475,0.08724 4.94622,0.914775 2.02981,0.959037 4.4099,3.233976 4.4099,4.215065 0,0.294996 0.20393,0.705602 0.45317,0.912457 0.24925,0.206854 0.45317,0.638107 0.45317,0.958339 0,0.320232 0.23792,1.017332 0.5287,1.549111 0.48034,0.878424 0.52871,2.155227 0.52871,13.957806 l 0,12.990937 -4.76036,0 -4.76035,0 -0.0735,-11.056433 c -0.0502,-7.554163 -0.17992,-11.190719 -0.40947,-11.480363 -0.18479,-0.233161 -0.42081,-0.779901 -0.52448,-1.214977 -0.31473,-1.320866 -2.47259,-3.238415 -3.76519,-3.345891 -2.54566,-0.211661 -3.64625,0.176231 -5.17795,1.824924 -1.84535,1.986289 -1.85914,2.101308 -1.81507,15.145227 l 0.0342,10.127513 -5.15944,0.08266 -5.15943,0.08267 0,-11.023141 c 0,-10.444631 -0.0329,-11.106633 -0.62708,-12.61405 -0.36063,-0.914927 -1.09876,-2.01072 -1.73716,-2.578924 -1.01633,-0.904567 -1.27899,-0.988033 -3.11001,-0.98825 -1.8772,-2.22e-4 -2.07862,0.06874 -3.28234,1.123881 -0.70636,0.619159 -1.60615,1.831862 -2.0031,2.699674 -0.71704,1.567618 -0.72067,1.630467 -0.72067,12.47105 l 0,10.895491 -4.99438,0 c -3.72184,0 -5.02889,-0.09622 -5.12984,-0.377643 z"
       style="opacity:1;fill:#ffffff;fill-opacity:1;stroke:#e1e2e6;stroke-width:0.30211481;stroke-opacity:0.89411765" />
    <path
       transform="translate(0,952.36216)"
       id="path4311"
       d="m 193.28767,69.686461 c -0.0782,-0.07817 -1.01849,-0.355707 -2.08962,-0.616761 -3.09269,-0.753738 -5.63302,-2.180251 -7.91063,-4.442185 -1.12361,-1.11587 -2.04292,-2.192779 -2.04292,-2.393129 0,-0.20035 -0.18219,-0.578905 -0.40487,-0.841233 -0.70955,-0.835892 -1.64895,-4.014709 -2.01583,-6.821372 -0.63279,-4.840715 0.53642,-10.079692 3.16895,-14.199396 0.69533,-1.088142 3.64696,-4.07855 4.02566,-4.07855 0.14761,0 0.51446,-0.271903 0.81521,-0.604229 0.30075,-0.332326 0.77046,-0.60423 1.0438,-0.60423 0.27334,0 0.66064,-0.163655 0.86066,-0.363678 0.78314,-0.783137 3.3281,-1.244962 7.4986,-1.360741 l 4.2671,-0.118462 2.56183,1.20014 c 2.40505,1.126695 5.67133,3.735095 5.67133,4.529039 0,0.165083 0.17699,0.479801 0.39331,0.699373 0.55642,0.564786 1.7215,3.056572 1.7215,3.681817 0,0.288116 0.19131,0.893811 0.42514,1.345989 0.40983,0.792527 0.579,3.432442 0.51144,7.981078 l -0.0302,2.035642 -11.40483,0.07916 -11.40484,0.07916 -0.0962,0.837216 c -0.14666,1.276169 1.48718,3.672675 3.26842,4.794108 0.41541,0.261532 1.6761,0.786291 2.80154,1.166131 1.84054,0.621185 2.43542,0.674834 5.91714,0.533622 2.12898,-0.08635 4.13113,-0.296266 4.44921,-0.466485 0.31808,-0.170219 1.20674,-0.403715 1.9748,-0.518882 l 1.39646,-0.209392 0.21946,1.463563 c 0.1207,0.804959 0.32461,1.66749 0.45314,1.916735 0.12852,0.249245 0.32751,1.099955 0.4422,1.890465 0.17861,1.231167 0.12999,1.461801 -0.33903,1.608158 -0.30115,0.09398 -0.77953,0.294335 -1.06306,0.445244 -0.28352,0.15091 -1.09923,0.358997 -1.81268,0.462417 -0.71345,0.10342 -1.96763,0.377879 -2.78707,0.60991 -1.40557,0.398 -10.13394,0.630882 -10.48507,0.279755 z m 8.80047,-22.362691 c 0.53472,-0.644301 0.11759,-3.004298 -0.78325,-4.43131 -0.40403,-0.640031 -1.29666,-1.570842 -1.98361,-2.06847 -1.11101,-0.80481 -1.48848,-0.904777 -3.41637,-0.904777 -1.96364,0 -2.29807,0.09294 -3.55815,0.988822 -2.62661,1.867455 -4.05821,4.584447 -3.36601,6.388282 0.15907,0.414541 1.0151,0.477881 6.45847,0.477881 5.19231,0 6.3396,-0.07772 6.64892,-0.450428 z"
       style="opacity:1;fill:#ffffff;fill-opacity:1;stroke:#e1e2e6;stroke-width:0.30211481;stroke-opacity:0.89411765" />
    <path
       transform="translate(0,952.36216)"
       id="path4313"
       d="m 227.68734,69.21005 c -3.41868,-1.387943 -4.73249,-2.760698 -5.94568,-6.21245 -0.57176,-1.626777 -0.61801,-2.462831 -0.61801,-11.172917 0,-10.843963 0.16693,-10.241936 -2.84012,-10.243116 l -1.84266,-7.22e-4 -0.0845,-3.665138 -0.0845,-3.665137 1.97192,-0.125563 c 1.08455,-0.06906 2.14223,-0.295248 2.3504,-0.502643 0.22996,-0.229106 0.43776,-1.57636 0.52954,-3.433176 l 0.15106,-3.056094 1.20846,-0.388405 c 3.89492,-1.251846 5.25008,-1.629101 5.85201,-1.629101 0.3704,0 1.05733,-0.198506 1.5265,-0.441123 0.46917,-0.242618 0.93825,-0.355911 1.0424,-0.251763 0.10415,0.104149 0.18936,2.070026 0.18936,4.368616 0,5.469205 -0.0685,5.387714 4.53172,5.387714 l 3.32326,0 0,3.298554 c 0,1.814204 -0.0745,3.492601 -0.16547,3.72977 -0.1333,0.347372 -0.74853,0.40314 -3.16418,0.286818 -2.45355,-0.118147 -3.13747,-0.05347 -3.76202,0.355745 l -0.76331,0.500142 0,6.775878 c 0,7.269537 0.29589,9.404199 1.52052,10.969691 0.79266,1.013299 1.40729,1.205381 3.97938,1.243619 l 2.02559,0.03012 0.18085,0.981873 c 0.0995,0.540031 0.13961,2.205438 0.0892,3.700907 l -0.0916,2.719027 -1.05741,0.528232 c -1.57559,0.787097 -8.03523,0.729677 -10.05262,-0.08936 z"
       style="opacity:1;fill:#ffffff;fill-opacity:1;stroke:#e1e2e6;stroke-width:0.30211481;stroke-opacity:0.89411765" />
    <path
       transform="translate(0,952.36216)"
       id="path4315"
       d="m 250.7309,69.139585 c -0.9139,-0.357393 -1.85539,-0.790417 -2.09221,-0.962278 -1.23319,-0.894931 -3.27942,-3.261212 -3.90578,-4.516692 -0.65281,-1.308473 -0.70075,-1.713922 -0.58583,-4.954845 0.12647,-3.566511 0.34907,-4.353416 1.74998,-6.186161 0.89054,-1.165043 3.17839,-3.243961 3.77418,-3.429511 0.33357,-0.103884 0.67446,-0.277611 0.75755,-0.386061 0.25097,-0.327606 2.75589,-1.254908 4.68278,-1.733529 0.99697,-0.247641 3.5564,-0.609961 5.6876,-0.805156 4.14982,-0.380079 4.71437,-0.654824 4.26364,-2.074951 -0.56146,-1.769017 -2.27652,-3.095746 -4.82089,-3.72934 -2.13545,-0.531764 -2.33996,-0.533727 -4.43975,-0.0426 -1.21065,0.283163 -2.45254,0.5131 -2.75975,0.51097 -0.30721,-0.0021 -0.98697,0.18095 -1.51057,0.406843 -1.03124,0.444899 -2.6436,1.169951 -2.96376,1.332754 -0.10949,0.05567 -0.29513,-0.347819 -0.41253,-0.896651 -0.11741,-0.548831 -0.31802,-1.133828 -0.44581,-1.299991 -0.12779,-0.166163 -0.36739,-0.913897 -0.53245,-1.661631 -0.16506,-0.747734 -0.39301,-1.581203 -0.50654,-1.852154 -0.23402,-0.558462 1.44388,-1.773224 2.44928,-1.773224 0.32102,0 0.71282,-0.127772 0.87068,-0.283938 0.69032,-0.682937 4.98066,-1.351824 9.35045,-1.457786 4.77238,-0.115725 6.03337,0.09312 9.2145,1.526082 1.37123,0.61768 3.94096,2.955167 4.31213,3.922408 0.11035,0.287563 0.34085,0.522842 0.51223,0.522842 0.17138,0 0.3116,0.211386 0.3116,0.469747 0,0.258361 0.2951,1.108059 0.65578,1.888217 0.62108,1.343389 0.66782,2.018146 0.88293,12.747776 0.12493,6.231118 0.32502,12.046698 0.44465,12.923507 l 0.21752,1.594206 -4.65029,-0.08363 -4.65029,-0.08363 -0.32751,-1.359517 c -0.39603,-1.643985 -0.91119,-1.807399 -2.09809,-0.665531 -1.07148,1.030827 -2.15984,1.655909 -4.30764,2.474027 -2.27336,0.865945 -6.80983,0.825903 -9.12779,-0.08057 z m 10.07435,-6.722543 c 1.64352,-0.488597 2.63008,-1.222922 3.7474,-2.789293 0.59519,-0.834392 0.67976,-1.32574 0.67976,-3.94934 0,-3.935294 -0.002,-3.936712 -3.86222,-3.222766 -4.40406,0.814464 -5.84389,1.720166 -6.88002,4.327771 -0.45651,1.148893 -0.46947,1.454344 -0.1081,2.549308 0.50147,1.519461 1.31808,2.438665 2.70173,3.041178 1.36462,0.594223 1.84886,0.599836 3.72145,0.04314 z"
       style="opacity:1;fill:#ffffff;fill-opacity:1;stroke:#e1e2e6;stroke-width:0.30211481;stroke-opacity:0.89411765" />
    <path
       transform="translate(0,952.36216)"
       id="path4317"
       d="m 296.30038,69.366693 c -0.66465,-0.239447 -1.39997,-0.437407 -1.63405,-0.439909 -0.23407,-0.0024 -1.44407,-0.514368 -2.68889,-1.13748 -2.98177,-1.492571 -5.55877,-3.885922 -6.58726,-6.117825 -0.11486,-0.249245 -0.36992,-0.6571 -0.5668,-0.906344 -0.19688,-0.249245 -0.65205,-1.346442 -1.01148,-2.438217 -0.54744,-1.662838 -0.65351,-2.689184 -0.65351,-6.323113 0,-4.865712 0.4486,-6.794585 2.33317,-10.032063 0.88027,-1.51222 3.6997,-4.771562 4.12753,-4.771562 0.0855,0 0.75986,-0.407855 1.49848,-0.906345 0.73862,-0.498489 1.44429,-0.906344 1.56816,-0.906344 0.12386,0 0.7839,-0.255186 1.46676,-0.56708 2.27609,-1.039607 3.92623,-1.329794 8.31584,-1.462387 3.58896,-0.108409 4.69837,-0.03447 6.30532,0.420254 1.07254,0.303496 2.01848,0.727718 2.10209,0.942715 0.0836,0.214998 -0.0107,1.098683 -0.20968,1.963747 -0.19894,0.865063 -0.51356,2.354564 -0.69916,3.310002 -0.31736,1.633796 -0.38913,1.73716 -1.20613,1.73716 -0.47778,0 -1.13241,-0.141137 -1.45473,-0.313638 -0.32232,-0.172501 -1.43498,-0.387521 -2.47259,-0.477822 -2.13494,-0.185801 -4.74454,0.506209 -6.7985,1.802819 -1.14116,0.720381 -3.09205,2.870922 -3.09595,3.412781 -0.001,0.142252 -0.23502,0.666494 -0.51999,1.164984 -0.65006,1.137109 -0.77227,7.134875 -0.1579,7.749245 0.2077,0.207703 0.37764,0.610148 0.37764,0.89432 0,0.771145 2.26429,3.488157 3.62036,4.344201 2.37397,1.498622 5.90105,1.979216 8.93723,1.217772 2.39341,-0.600244 2.85026,-0.478503 2.85026,0.759524 0,0.514628 0.12042,1.164666 0.26759,1.444527 0.14717,0.279861 0.3624,1.469656 0.47829,2.643988 l 0.21071,2.135151 -2.60418,0.659411 c -3.19637,0.809362 -10.08801,0.921879 -12.09863,0.197528 z"
       style="opacity:1;fill:#ffffff;fill-opacity:1;stroke:#e1e2e6;stroke-width:0.30211481;stroke-opacity:0.89411765" />
    <path
       transform="translate(0,952.36216)"
       id="path4319"
       d="m 318.20108,53.136736 c -10e-4,-8.682024 -0.0888,-16.50299 -0.19413,-17.379925 l -0.1915,-1.594425 4.49926,0.08385 4.49927,0.08385 0.0869,2.794562 c 0.0765,2.461898 0.15187,2.794562 0.63294,2.794562 0.65138,0 1.38907,-0.777616 1.69873,-1.790686 0.38536,-1.260736 2.28517,-3.009312 4.30796,-3.965037 1.62668,-0.768567 2.24584,-0.90357 3.80168,-0.828919 l 1.85853,0.08917 0.15106,4.604547 c 0.12016,3.662737 0.0688,4.635997 -0.25129,4.758308 -0.2213,0.08457 -1.32562,0.153761 -2.45405,0.153761 -3.25802,0 -5.82921,1.449387 -7.22734,4.074076 -0.61781,1.159808 -0.64134,1.583824 -0.64134,11.555891 l 0,10.351906 -5.28701,0 -5.28701,0 -0.003,-15.785498 z"
       style="opacity:1;fill:#ffffff;fill-opacity:1;stroke:#e1e2e6;stroke-width:0.30211481;stroke-opacity:0.89411765" />
    <path
       transform="translate(0,952.36216)"
       id="path4321"
       d="m 345.84721,68.750993 c -0.19748,-0.08554 -0.27857,-6.069207 -0.23415,-17.275887 l 0.068,-17.145017 5.14908,0 5.14907,0 0.007,17.220544 0.007,17.220544 -4.922,0.05534 c -2.7071,0.03044 -5.05795,-0.0035 -5.22411,-0.07552 z"
       style="opacity:1;fill:#ffffff;fill-opacity:1;stroke:#e1e2e6;stroke-width:0.30211481;stroke-opacity:0.89411765" />
    <path
       transform="translate(0,952.36216)"
       id="path4323"
       d="m 348.77713,28.17959 c -1.495,-0.606908 -3.01048,-1.932884 -3.40994,-2.983562 -0.35699,-0.938939 -0.35384,-3.470699 0.005,-4.365909 0.82477,-2.055148 3.01606,-3.372222 5.61055,-3.372222 2.21466,0 4.98489,1.34077 4.98489,2.412648 0,0.198469 0.16994,0.4175 0.37765,0.486735 0.52969,0.176562 0.52969,5.110446 0,5.287009 -0.20771,0.06923 -0.37765,0.292912 -0.37765,0.497062 0,0.551092 -1.46224,1.523627 -3.15049,2.095384 -1.83273,0.620685 -2.39014,0.612802 -4.04043,-0.05714 z"
       style="opacity:1;fill:#ffffff;fill-opacity:1;stroke:#e1e2e6;stroke-width:0.30211481;stroke-opacity:0.89411765" />
    <path
       transform="translate(0,952.36216)"
       id="path4325"
       d="m 373.80968,69.141999 c -0.96834,-0.381142 -2.21198,-1.211768 -3.02394,-2.01968 -2.88986,-2.87549 -3.33674,-5.069118 -3.33708,-16.380922 -2.8e-4,-9.673731 0.044,-9.508359 -2.46751,-9.210905 -2.14607,0.254169 -2.36657,-0.09502 -2.36657,-3.747662 0,-1.649763 -0.034,-3.101532 -0.0755,-3.226155 -0.0415,-0.124622 0.89924,-0.294562 2.09063,-0.377643 1.19138,-0.08308 2.279,-0.264091 2.41692,-0.402244 0.13792,-0.138153 0.27748,-1.624745 0.31013,-3.303538 l 0.0594,-3.052351 1.07256,-0.521703 c 0.58991,-0.286936 1.6508,-0.617075 2.35754,-0.733642 0.70674,-0.116566 1.44234,-0.338723 1.63467,-0.493681 0.19232,-0.154958 1.07601,-0.418328 1.96374,-0.585267 0.88774,-0.166939 1.98794,-0.380093 2.44488,-0.473676 l 0.83082,-0.170152 0,4.52902 c 0,3.369266 0.10152,4.613275 0.39646,4.858048 0.2217,0.183999 1.96481,0.366763 3.95459,0.414636 l 3.55815,0.08561 -0.009,3.431021 c -0.005,1.887062 -0.0965,3.518482 -0.20343,3.625378 -0.10694,0.106896 -1.60322,0.151654 -3.32506,0.09946 -4.76287,-0.144369 -4.37172,-0.927754 -4.37172,8.755664 0,7.77577 0.0317,8.237562 0.63123,9.207695 0.88562,1.432967 1.59347,1.744942 4.35366,1.91884 l 2.41692,0.152272 0.15302,3.47432 c 0.14062,3.192837 0.1047,3.51516 -0.44343,3.978414 -0.84274,0.71225 -1.86646,0.858139 -5.86518,0.835828 -2.84487,-0.01586 -3.82455,-0.142584 -5.15686,-0.666985 z"
       style="opacity:1;fill:#ffffff;fill-opacity:1;stroke:#e1e2e6;stroke-width:0.30211481;stroke-opacity:0.89411765" />
    <path
       transform="translate(0,952.36216)"
       id="path4327"
       d="m 392.97712,68.75099 c -0.19752,-0.08556 -0.27771,-6.066788 -0.23163,-17.275884 l 0.0705,-17.145017 5.14655,0 5.14656,0 0.007,17.220544 0.007,17.220544 -4.922,0.05534 c -2.7071,0.03044 -5.05795,-0.0035 -5.22411,-0.07553 z"
       style="opacity:1;fill:#ffffff;fill-opacity:1;stroke:#e1e2e6;stroke-width:0.30211481;stroke-opacity:0.89411765" />
    <path
       transform="translate(0,952.36216)"
       id="path4329"
       d="m 395.81927,28.17964 c -2.56038,-0.938919 -3.59269,-2.4408 -3.59545,-5.230898 -0.002,-1.813893 0.0964,-2.142956 0.97988,-3.28546 1.05376,-1.362625 3.19373,-2.401976 4.94649,-2.402433 1.13944,-2.97e-4 3.36127,0.942724 4.19249,1.779439 1.42505,1.434477 1.50262,1.638918 1.50262,3.960169 0,2.223129 -0.0323,2.323846 -1.1254,3.505237 -0.77335,0.835838 -1.63099,1.375713 -2.74161,1.725806 -1.94129,0.611936 -2.36323,0.606675 -4.15902,-0.05186 z"
       style="opacity:1;fill:#ffffff;fill-opacity:1;stroke:#e1e2e6;stroke-width:0.30211481;stroke-opacity:0.89411765" />
    <path
       transform="translate(0,952.36216)"
       id="path4331"
       d="m 424.09494,69.366693 c -0.66465,-0.239447 -1.40872,-0.437407 -1.65348,-0.439909 -0.24476,-0.0024 -1.46832,-0.514196 -2.71903,-1.1371 -2.51351,-1.251824 -6.1873,-4.599268 -6.5252,-5.945555 -0.10724,-0.427284 -0.30008,-0.77688 -0.42853,-0.77688 -0.40928,0 -1.24444,-2.776201 -1.72682,-5.740181 -0.39773,-2.443849 -0.41111,-3.339939 -0.0901,-6.033809 0.57269,-4.805924 1.69367,-7.144303 5.00065,-10.431448 2.71179,-2.695514 4.99874,-4.010123 8.74674,-5.027876 2.18254,-0.59266 10.68864,-0.537674 12.68882,0.08203 l 1.51058,0.468007 -0.067,1.346015 c -0.0369,0.740309 -0.27477,1.934856 -0.5287,2.65455 -0.25392,0.719694 -0.46167,1.767272 -0.46167,2.327952 0,0.911475 -0.088,1.019072 -0.83082,1.016148 -0.45695,-0.0018 -1.49819,-0.205726 -2.31388,-0.453172 -2.04172,-0.619379 -3.54482,-0.564786 -6.17147,0.224149 -1.83155,0.550119 -2.53391,0.952841 -3.82001,2.190333 -2.53525,2.439421 -2.97597,3.583046 -2.97108,7.709634 0.004,3.151274 0.0777,3.617071 0.7953,5.009594 2.30968,4.481891 7.39835,6.495717 12.87105,5.093677 1.01063,-0.25891 1.95393,-0.398789 2.09624,-0.310841 0.57404,0.354781 1.70809,6.446301 1.31242,7.049654 -0.13592,0.207257 -1.25896,0.645901 -2.49565,0.974765 -2.83953,0.75509 -10.28531,0.846664 -12.21833,0.150268 z"
       style="opacity:1;fill:#ffffff;fill-opacity:1;stroke:#e1e2e6;stroke-width:0.30211481;stroke-opacity:0.89411765" />
  </g>
</svg>
